<?xml version="1.0" encoding="UTF-8"?>
<!DOCTYPE svg PUBLIC "-//W3C//DTD SVG 1.1//EN" "http://www.w3.org/Graphics/SVG/1.1/DTD/svg11.dtd">
<!-- Creator: CorelDRAW -->
<svg xmlns="http://www.w3.org/2000/svg" xml:space="preserve" width="6.82666in" height="6.82666in" style="shape-rendering:geometricPrecision; text-rendering:geometricPrecision; image-rendering:optimizeQuality; fill-rule:evenodd; clip-rule:evenodd"
viewBox="0 0 6.82666 6.82666"
 xmlns:xlink="http://www.w3.org/1999/xlink">
 <defs>
  <style type="text/css">
   <![CDATA[
    .fil3 {fill:none}
    .fil2 {fill:#B38E85}
    .fil1 {fill:#FECA5F}
    .fil0 {fill:#333333;fill-rule:nonzero}
   ]]>
  </style>
 </defs>
 <g id="Layer_x0020_1">
  <metadata id="CorelCorpID_0Corel-Layer"/>
  <path class="fil0" d="M5.82348 3.28517c-0.0669724,0.10637 -0.358579,0.250882 -0.779787,0.364118 -0.354157,0.0952165 -0.794508,0.163724 -1.2661,0.163724 -1.00603,0 -1.66877,-0.345626 -2.03273,-0.535433 -0.041811,-0.0218031 -0.0128346,-0.00688189 -0.0412047,-0.0216063 -0.0121654,-0.0074685 -0.0264764,-0.0117795 -0.0417953,-0.0117795 -0.0441811,0 -0.08,0.0358189 -0.08,0.08 0,0.749114 0.548528,1.2095 1.25991,1.40731 0.277039,0.0770315 0.579138,0.113882 0.882488,0.112071 0.303039,-0.00181102 0.607626,-0.0422323 0.889965,-0.119724 0.758547,-0.208209 1.3591,-0.683689 1.3591,-1.39966 0,-0.0441811 -0.0358189,-0.08 -0.08,-0.08 -0.0300118,0 -0.0561575,0.0165276 -0.0698465,0.0409764zm-4.07438 0.174173c0.390079,0.201248 1.05298,0.513669 2.0285,0.513669 0.486185,0 0.941031,-0.0708583 1.30735,-0.169346 0.306004,-0.0822677 0.553681,-0.186669 0.710701,-0.287835 -0.0989291,0.526087 -0.603268,0.884091 -1.22329,1.05428 -0.269055,0.0738465 -0.559524,0.112366 -0.848713,0.114094 -0.288874,0.00172441 -0.576224,-0.0332756 -0.839362,-0.106441 -0.600028,-0.16685 -1.07219,-0.534087 -1.13518,-1.11842z"/>
  <path class="fil0" d="M3.7776 4.23357c0.0441811,0 0.08,-0.0358189 0.08,-0.08 0,-0.0441811 -0.0358189,-0.08 -0.08,-0.08 -0.315768,0 -0.596925,-0.0337795 -0.845213,-0.0859764 -0.249051,-0.0523622 -0.465339,-0.123051 -0.650488,-0.196752 -0.0409016,-0.0162205 -0.0872165,0.0037874 -0.103437,0.044689 -0.0162205,0.0409016 0.0037874,0.0872165 0.044689,0.103437 0.193201,0.0769055 0.418386,0.150559 0.676732,0.204878 0.25911,0.0544724 0.551323,0.0897244 0.877717,0.0897244z"/>
  <path class="fil0" d="M1.69731 3.46456l-0.665717 -0.864528 0.251945 -0.377921c0.116098,0.189626 0.527894,0.762862 0.780051,1.11702 0.0722835,0.0120512 0.143402,0.0229606 0.21476,0.0314213 -0.426047,-0.607126 -0.893142,-1.30277 -0.911965,-1.34041 -0.00595669,-0.0132441 -0.0155866,-0.0250315 -0.0285591,-0.0336811 -0.0367598,-0.0245039 -0.0864331,-0.0145709 -0.110937,0.022189l-0.359098 0.53865c-0.0195551,0.0278976 -0.0197165,0.0663543 0.0021811,0.0947559l0.0633583 -0.0488465 -0.063126 0.048752 0.836461 1.08137c-0.0229961,-0.224874 -0.112815,-0.100331 -0.00935433,-0.268768z"/>
  <path class="fil0" d="M5.64046 2.10146c-0.033315,0.120752 -0.271976,0.342583 -0.644295,0.571539 -0.31285,0.19239 -0.715461,0.383531 -1.16668,0.517539 -0.770142,0.228728 -1.39376,0.183551 -1.81907,0.116161 -0.0163898,-0.00259449 -0.290949,-0.0480827 -0.306752,-0.0507323 0.048185,0.0239331 0.0829961,0.116177 0.132063,0.13865 0.11989,0.0549016 0.0804331,0.0732165 0.204854,0.116579 0.0078189,0.000385827 0.449268,0.00596063 0.45715,0.00630315 0.380346,0.0165945 0.84424,-0.0156772 1.37676,-0.173835 0.466906,-0.138669 0.882764,-0.335988 1.20543,-0.534413 0.270091,-0.166091 0.47787,-0.336882 0.599496,-0.478717 0.0229843,0.220378 -0.028626,0.432453 -0.135421,0.628972 -0.123591,0.227425 -0.320453,0.434933 -0.561661,0.611791 -0.00806693,0.00591339 -0.191972,0.14852 -0.200138,0.154366 0.0217283,-0.00548425 0.198335,-0.00981496 0.219909,-0.0156142 0.107894,-0.0290079 0.0922756,-0.0494134 0.199575,-0.089126 0.00829134,-0.0081063 0.163638,-0.167303 0.171756,-0.175488 0.125992,-0.127059 0.231598,-0.264374 0.310559,-0.409677 0.156728,-0.288402 0.209315,-0.607051 0.110787,-0.938795 -0.0124252,-0.0422835 -0.0567795,-0.0664882 -0.099063,-0.054063 -0.0286142,0.00840945 -0.0489449,0.0314409 -0.055252,0.0585591z"/>
  <path class="fil0" d="M4.53893 3.32807c0.0395197,-0.0193268 0.0558898,-0.0670433 0.036563,-0.106563 -0.0193268,-0.0395197 -0.0670433,-0.0558898 -0.106563,-0.036563 -0.282303,0.13824 -0.549791,0.231472 -0.796689,0.294024 -0.246374,0.0624173 -0.471843,0.0940472 -0.670874,0.109307 -0.0337953,0.00251575 -0.0611063,0.0257087 -0.0704843,0.0562677 0.134913,0.0290079 0.271059,0.0507126 0.408256,0.0653661 0.117878,-0.0184016 0.242075,-0.043063 0.37185,-0.0759409 0.255709,-0.0647835 0.533524,-0.161724 0.827941,-0.305898z"/>
  <path class="fil1" d="M4.57549 3.22151c0.0193268,0.0395197 0.00295669,0.0872362 -0.036563,0.106563 -0.294417,0.144173 -0.572232,0.241114 -0.827941,0.305898 -0.129776,0.032878 -0.253972,0.0575394 -0.37185,0.0759409 -0.137197,-0.0146535 -0.273343,-0.0363583 -0.408256,-0.0653661 0.00937795,-0.0305591 0.036689,-0.053752 0.0704843,-0.0562677 0.199031,-0.0152598 0.4245,-0.0468898 0.670874,-0.109307 0.246898,-0.0625512 0.514386,-0.155783 0.796689,-0.294024 0.0395197,-0.0193268 0.0872362,-0.00295669 0.106563,0.036563zm1.10392 -0.890972c-0.121626,0.141835 -0.329406,0.312626 -0.599496,0.478717 -0.322661,0.198425 -0.73852,0.395744 -1.20543,0.534413 -0.532516,0.158157 -0.996409,0.190429 -1.37676,0.173835 -0.00425984,-0.000185039 -0.135047,-0.00189764 -0.25565,-0.00349213 0.375736,0.153835 0.883539,0.299 1.53552,0.299 0.372016,0 0.724591,-0.0426299 1.03075,-0.107378 0.0529843,-0.0408346 0.167646,-0.129689 0.173976,-0.134331 0.241209,-0.176858 0.438071,-0.384366 0.561661,-0.611791 0.106795,-0.19652 0.158406,-0.408594 0.135421,-0.628972z"/>
  <path class="fil1" d="M5.08495 3.80367c-0.366319,0.0984882 -0.821165,0.169346 -1.30735,0.169346 -0.975516,0 -1.63842,-0.312421 -2.0285,-0.513669 0.0629921,0.584331 0.535154,0.951567 1.13518,1.11842 0.263138,0.0731654 0.550488,0.108165 0.839362,0.106441 0.289189,-0.00172835 0.579657,-0.040248 0.848713,-0.114094 0.620024,-0.170185 1.12436,-0.528189 1.22329,-1.05428 -0.15702,0.101165 -0.404697,0.205567 -0.710701,0.287835zm-1.22735 0.349902c0,0.0441811 -0.0358189,0.08 -0.08,0.08 -0.326394,0 -0.618606,-0.035252 -0.877717,-0.0897244 -0.258346,-0.0543189 -0.483531,-0.127972 -0.676732,-0.204878 -0.0409016,-0.0162205 -0.0609094,-0.0625354 -0.044689,-0.103437 0.0162205,-0.0409016 0.0625354,-0.0609094 0.103437,-0.044689 0.18515,0.0737008 0.401437,0.14439 0.650488,0.196752 0.248287,0.0521969 0.529445,0.0859764 0.845213,0.0859764 0.0441811,0 0.08,0.0358189 0.08,0.08z"/>
  <path class="fil2" d="M2.04423 3.31195c-0.253362,-0.355618 -0.64752,-0.904992 -0.760693,-1.08984l-0.251945 0.377921 0.550764 0.715244c0.00443307,-0.0399843 0.0383425,-0.0710827 0.0795079,-0.0710827 0.0153189,0 0.0296299,0.00431102 0.0417953,0.0117795 0.0158031,0.00264961 0.290362,0.0481378 0.306752,0.0507323 0.0111378,0.00176378 0.0224094,0.00351575 0.0338189,0.00524409z"/>
 </g>
 <rect class="fil3" width="6.82666" height="6.82666"/>
</svg>
