<svg xmlns="http://www.w3.org/2000/svg" width="37.789" height="47.999" viewBox="0 0 37.789 47.999">
  <g>
    <circle cx="14.63" cy="42.478" r="5.521" fill="#525c6b"/>
    <circle cx="13.964" cy="41.811" r="4.733" fill="#7a8e9b"/>
    <circle cx="19.476" cy="36.502" r="4.734" fill="#525c6b"/>
    <circle cx="18.021" cy="35.048" r="4.733" fill="#7a8e9b"/>
    <circle cx="22.977" cy="28.507" r="5.29" fill="#525c6b"/>
    <circle cx="10.515" cy="35.657" r="5.579" fill="#525c6b"/>
    <circle cx="9.906" cy="35.048" r="4.733" fill="#7a8e9b"/>
    <circle cx="22.079" cy="27.61" r="4.733" fill="#7a8e9b"/>
    <circle cx="15.418" cy="29.064" r="4.733" fill="#525c6b"/>
    <circle cx="13.964" cy="27.61" r="4.733" fill="#7a8e9b"/>
    <circle cx="6.463" cy="28.349" r="5.573" fill="#525c6b"/>
    <circle cx="5.848" cy="27.61" r="4.733" fill="#7a8e9b"/>
    <circle cx="18.78" cy="21.605" r="5.429" fill="#525c6b"/>
    <circle cx="18.021" cy="20.846" r="4.733" fill="#7a8e9b"/>
    <path d="M23.348,15.835a16.967,16.967,0,0,0,4.005,5.09,18.434,18.434,0,0,0,1.855-4.5c3.392,1.855,8.581,1.179,8.581,1.179s-1.451-5.027-4.506-7.4a18.414,18.414,0,0,0,3.381-3.5A16.96,16.96,0,0,0,30.4,5.077,20.812,20.812,0,0,0,32.841.21S21.822-1.6,20.982,5.383a2.294,2.294,0,0,1-1.113,1.7c-6.063,3.555-.009,12.938-.009,12.938A20.913,20.913,0,0,0,23.348,15.835Z" fill="#79ccb8"/>
    <path d="M31.687,14.731l1.024-1.57-4.742-3.1A5.151,5.151,0,0,1,30.9,9.051l.054-1.875a7.192,7.192,0,0,0-4.626,1.816L23.958,7.447a9.457,9.457,0,0,1,4.571-3.674l-.267-.9L28,1.975a11.136,11.136,0,0,0-5.612,4.447L20.276,5.045a8.731,8.731,0,0,0-12.223,3A11.56,11.56,0,0,0,.637.794L0,2.558a9.771,9.771,0,0,1,6.872,9.6c0,.061-.008.12-.009.182l0,.021h0c0,.026,0,.054,0,.081a8.756,8.756,0,0,0,1.11,4.268L9.6,15.79a6.89,6.89,0,0,1-.871-3.339c0-.036.005-.085.006-.15A6.866,6.866,0,0,1,19.26,6.625l2.1,1.368a11.136,11.136,0,0,0-1.814,6.884l1.86-.237a9.31,9.31,0,0,1,1.524-5.621l2.374,1.55a7.141,7.141,0,0,0,.191,4.938l1.694-.8a5.2,5.2,0,0,1-.241-3.063Z" fill="#3daa9d"/>
    <circle cx="10.562" cy="21.221" r="5.555" fill="#525c6b"/>
    <circle cx="9.929" cy="20.588" r="4.734" fill="#7a8e9b"/>
  </g>
</svg>
