<svg xmlns="http://www.w3.org/2000/svg" width="46.604" height="48" viewBox="0 0 46.604 48">
  <g>
    <path d="M20.744,16.624C23.76,13.585,29.885,14.553,36,18.537A18.543,18.543,0,0,0,18.56,6.792C8.31,6.792,0,14.8,0,24.677A18.1,18.1,0,0,0,15.456,42.308C11.521,34.536,13.42,24.01,20.744,16.624Z" fill="#ffbd66"/>
    <path d="M21.933,18.7c-7.392,7.392-8.194,18.574-1.792,24.976s17.584,5.6,24.976-1.792Z" fill="#ffbd66"/>
    <ellipse cx="33.527" cy="30.29" rx="8.554" ry="16.393" transform="translate(-11.599 32.579) rotate(-45)" fill="#fddc85"/>
    <g>
      <path d="M28.235,29.391l3.838.246-7.917-7.916h0a.446.446,0,0,0-.327-.119,1.242,1.242,0,0,0-.467.114,1.6,1.6,0,0,0-.989,1.357A14.158,14.158,0,0,0,24.486,29a.409.409,0,0,0,.342.177l3.407.219Z" fill="#ffbd66"/>
      <path d="M24.952,20.925l7.917,7.916L32.623,25h0L32.405,21.6a.411.411,0,0,0-.177-.342,14.154,14.154,0,0,0-5.922-2.113l-.056,0a1.639,1.639,0,0,0-1.3.991c-.059.127-.228.56,0,.8Z" fill="#ffbd66"/>
      <path d="M42.564,31.592a.41.41,0,0,0-.342-.178l-3.4-.218h0l-3.838-.246,7.916,7.916c.234.234.668.064.794.006a1.6,1.6,0,0,0,.99-1.357A14.148,14.148,0,0,0,42.564,31.592Z" fill="#ffbd66"/>
      <path d="M28.162,30.514l-.056,0a1.654,1.654,0,0,0-1.3.92c-.067.13-.268.572-.048.846a31.907,31.907,0,0,0,4.781,4.781c.271.218.714.019.844-.049a1.619,1.619,0,0,0,.918-1.354L33,30.824Z" fill="#ffbd66"/>
      <path d="M40.241,29.154c.067-.129.268-.571.048-.844a31.851,31.851,0,0,0-4.781-4.782c-.273-.22-.715-.018-.844.049a1.618,1.618,0,0,0-.918,1.352l.31,4.834,4.833.31A1.636,1.636,0,0,0,40.241,29.154Z" fill="#ffbd66"/>
      <path d="M34.182,31.746l.246,3.838h0l.218,3.406a.407.407,0,0,0,.178.342,14.149,14.149,0,0,0,5.922,2.113,1.626,1.626,0,0,0,1.357-.989c.058-.128.228-.562-.005-.8Z" fill="#ffbd66"/>
    </g>
    <path d="M20.424,5.432c-.539-8,9.669-6.139,14.508-.99C34.932,4.441,25.078,13.673,20.424,5.432Z" fill="#79ccb8"/>
    <path d="M29.839,3.325A17.659,17.659,0,0,0,18.917,5.36a6.406,6.406,0,0,0-2.525-2.828.75.75,0,0,0-.757,1.3C19.119,5.866,18.4,11.84,18.4,11.9a.751.751,0,0,0,.648.839.773.773,0,0,0,.1.006.749.749,0,0,0,.743-.653,14.5,14.5,0,0,0-.417-5.31A16.293,16.293,0,0,1,29.654,4.813a.75.75,0,1,0,.185-1.488Z" fill="#3daa9d"/>
    <path d="M19.14,12.815a.826.826,0,0,1-.694-.369,3.407,3.407,0,0,0-3.122-1.238.825.825,0,1,1-.235-1.633,5.357,5.357,0,0,1,4.078,1.183,4.1,4.1,0,0,1,2.922-.907A.824.824,0,1,1,22,11.5a2.348,2.348,0,0,0-2.158.931.838.838,0,0,1-.7.388Z" fill="#fddc85"/>
  </g>
</svg>
